<svg width="20" height="20" viewBox="0 0 20 20" fill="none" xmlns="http://www.w3.org/2000/svg">
<g clip-path="url(#clip0_8_13)">
<path d="M12.857 1.22449L15.7142 6.93877M4.28558 6.93877L7.14272 1.22449M17.5427 6.93877H2.45701C2.24275 6.93381 2.03026 6.98401 1.83527 7.08564C1.64029 7.18728 1.46782 7.33774 1.33062 7.52589C1.19343 7.71404 1.09503 7.93506 1.04272 8.17257C0.990414 8.41008 0.98553 8.658 1.02843 8.89796L2.59986 17.8775C2.66665 18.2519 2.84618 18.5876 3.10721 18.8262C3.36824 19.0649 3.69423 19.1914 4.02843 19.1837H15.9713C16.3055 19.1914 16.6315 19.0649 16.8925 18.8262C17.1535 18.5876 17.3331 18.2519 17.3999 17.8775L18.9713 8.89796C19.0142 8.658 19.0093 8.41008 18.957 8.17257C18.9047 7.93506 18.8063 7.71404 18.6691 7.52589C18.5319 7.33774 18.3594 7.18728 18.1645 7.08564C17.9695 6.98401 17.757 6.93381 17.5427 6.93877Z" stroke="#414C53" stroke-width="1.2" stroke-linecap="round" stroke-linejoin="round"/>
</g>
<defs>
<clipPath id="clip0_8_13">
<rect width="20" height="20" fill="white"/>
</clipPath>
</defs>
</svg>
