<svg width="16" height="16" viewBox="0 0 16 16" fill="none" xmlns="http://www.w3.org/2000/svg">
<g clip-path="url(#clip0_172_116)">
<path fill-rule="evenodd" clip-rule="evenodd" d="M1.95074 0.334852C1.7352 0.126671 1.44651 0.0114774 1.14685 0.0140813C0.8472 0.0166852 0.560557 0.136878 0.348662 0.348773C0.136767 0.560668 0.0165742 0.847311 0.0139703 1.14696C0.0113664 1.44662 0.12656 1.73531 0.334741 1.95085L6.38388 7.99999L0.334741 14.0491C0.225586 14.1546 0.138521 14.2807 0.0786248 14.4201C0.0187288 14.5595 -0.0127984 14.7095 -0.014117 14.8613C-0.0154357 15.013 0.0134806 15.1635 0.0709445 15.3039C0.128408 15.4444 0.213269 15.572 0.320575 15.6793C0.427881 15.7866 0.555483 15.8715 0.695936 15.9289C0.836389 15.9864 0.98688 16.0153 1.13863 16.014C1.29038 16.0127 1.44034 15.9812 1.57977 15.9213C1.71921 15.8614 1.84532 15.7743 1.95074 15.6651L7.99988 9.61599L14.049 15.6651C14.2646 15.8733 14.5533 15.9885 14.8529 15.9859C15.1526 15.9833 15.4392 15.8631 15.6511 15.6512C15.863 15.4393 15.9832 15.1527 15.9858 14.853C15.9884 14.5534 15.8732 14.2647 15.665 14.0491L9.61588 7.99999L15.665 1.95085C15.8732 1.73531 15.9884 1.44662 15.9858 1.14696C15.9832 0.847311 15.863 0.560668 15.6511 0.348773C15.4392 0.136878 15.1526 0.0166852 14.8529 0.0140813C14.5533 0.0114774 14.2646 0.126671 14.049 0.334852L7.99988 6.38399L1.95074 0.334852Z" fill="#FA350D"/>
</g>
<defs>
<clipPath id="clip0_172_116">
<rect width="16" height="16" fill="white"/>
</clipPath>
</defs>
</svg>
