<svg width="24" height="24" viewBox="0 0 24 24" fill="none" xmlns="http://www.w3.org/2000/svg">
<path d="M20.9519 3.048C20.2806 2.3775 19.3706 2.00089 18.4219 2.00089C17.4731 2.00089 16.5631 2.3775 15.8919 3.048L3.93987 15C3.53341 15.406 3.24778 15.9171 3.11487 16.476L2.01987 21.078C1.99022 21.2027 1.993 21.3328 2.02794 21.4561C2.06288 21.5794 2.12883 21.6916 2.21948 21.7822C2.31013 21.8727 2.42246 21.9385 2.54577 21.9733C2.66908 22.0082 2.79925 22.0108 2.92387 21.981L7.52487 20.885C8.08417 20.7523 8.59555 20.4666 9.00187 20.06L20.9519 8.11C21.6224 7.43874 21.999 6.52877 21.999 5.58C21.999 4.63123 21.6224 3.72126 20.9519 3.05M16.9519 4.11C17.1449 3.91696 17.3741 3.76383 17.6263 3.65935C17.8785 3.55488 18.1489 3.50111 18.4219 3.50111C18.6949 3.50111 18.9652 3.55488 19.2174 3.65935C19.4696 3.76383 19.6988 3.91696 19.8919 4.11C20.0849 4.30304 20.238 4.53222 20.3425 4.78444C20.447 5.03667 20.5008 5.307 20.5008 5.58C20.5008 5.85301 20.447 6.12334 20.3425 6.37556C20.238 6.62778 20.0849 6.85696 19.8919 7.05L18.9999 7.939L16.0599 5L16.9519 4.11ZM14.9999 6.062L17.9399 9L7.93987 19C7.72987 19.21 7.46587 19.357 7.17687 19.426L3.76087 20.24L4.57387 16.824C4.64287 16.534 4.79087 16.27 5.00087 16.06L14.9999 6.062Z" fill="#60C58E"/>
</svg>
