<svg width="150" height="150" viewBox="0 0 150 150" fill="none" xmlns="http://www.w3.org/2000/svg">
<g clip-path="url(#clip0_126_112)">
<path d="M-0.334961 66.6295C-0.334961 35.0642 -0.334962 19.2773 9.47531 9.47545C19.2772 -0.334821 35.064 -0.33482 66.6293 -0.33482H83.3704C114.936 -0.33482 130.723 -0.334821 140.524 9.47545C150.335 19.2773 150.335 35.0642 150.335 66.6295V83.3705C150.335 114.936 150.335 130.723 140.524 140.525C130.723 150.335 114.936 150.335 83.3704 150.335H66.6293C35.064 150.335 19.2772 150.335 9.47531 140.525C-0.334962 130.723 -0.334961 114.936 -0.334961 83.3705V66.6295Z" fill="#D6D6D6"/>
<path d="M74.9997 91.7411C93.4914 91.7411 108.482 76.7506 108.482 58.2589C108.482 39.7673 93.4914 24.7768 74.9997 24.7768C56.508 24.7768 41.5176 39.7673 41.5176 58.2589C41.5176 76.7506 56.508 91.7411 74.9997 91.7411Z" fill="#414C53"/>
<path fill-rule="evenodd" clip-rule="evenodd" d="M133.142 144.082C133.21 144.512 133.131 144.951 132.918 145.331C132.706 145.71 132.372 146.007 131.971 146.175C121.918 150.335 107.11 150.335 83.3713 150.335H66.6302C42.8998 150.335 28.0839 150.335 18.0309 146.166C17.631 145.999 17.2985 145.704 17.0861 145.326C16.8738 144.948 16.7938 144.51 16.859 144.082C20.45 119.297 45.1096 100.112 75.0008 100.112C104.892 100.112 129.552 119.297 133.142 144.082Z" fill="#414C53"/>
</g>
<defs>
<clipPath id="clip0_126_112">
<rect width="150" height="150" fill="white"/>
</clipPath>
</defs>
</svg>
