<svg width="35" height="35" viewBox="0 0 35 35" fill="none" xmlns="http://www.w3.org/2000/svg">
<path d="M29.5312 10.3906H22.8061C23.4327 10.1137 24.0147 9.74506 24.5328 9.29682C24.8922 8.97729 25.1816 8.58695 25.383 8.1503C25.5844 7.71364 25.6934 7.24008 25.7031 6.75932C25.7186 6.22654 25.6251 5.69622 25.4283 5.20087C25.2315 4.70553 24.9356 4.25561 24.5587 3.87873C24.1818 3.50184 23.7319 3.20592 23.2366 3.00913C22.7412 2.81234 22.2109 2.71882 21.6781 2.73432C21.1974 2.74408 20.7238 2.85307 20.2871 3.05446C19.8505 3.25585 19.4602 3.54529 19.1406 3.90463C18.3326 4.81655 17.824 6.00463 17.5 7.1435C17.1787 6.00463 16.6701 4.81928 15.8594 3.90463C15.5398 3.54529 15.1495 3.25585 14.7129 3.05446C14.2762 2.85307 13.8026 2.74408 13.3219 2.73432C12.7891 2.71882 12.2588 2.81234 11.7634 3.00913C11.2681 3.20592 10.8182 3.50184 10.4413 3.87873C10.0644 4.25561 9.76847 4.70553 9.57168 5.20087C9.37489 5.69622 9.28138 6.22654 9.29688 6.75932C9.30664 7.24008 9.41563 7.71364 9.61702 8.1503C9.81841 8.58695 10.1078 8.97729 10.4672 9.29682C10.9853 9.74506 11.5673 10.1137 12.1939 10.3906H5.46875C5.03363 10.3906 4.61633 10.5634 4.30865 10.8711C4.00098 11.1788 3.82812 11.5961 3.82812 12.0312V16.4062C3.82812 16.8413 4.00098 17.2586 4.30865 17.5663C4.61633 17.874 5.03363 18.0468 5.46875 18.0468H6.01562V27.3437C6.01562 27.7788 6.18848 28.1961 6.49615 28.5038C6.80383 28.8115 7.22113 28.9843 7.65625 28.9843H27.3438C27.7789 28.9843 28.1962 28.8115 28.5038 28.5038C28.8115 28.1961 28.9844 27.7788 28.9844 27.3437V18.0468H29.5312C29.9664 18.0468 30.3837 17.874 30.6913 17.5663C30.999 17.2586 31.1719 16.8413 31.1719 16.4062V12.0312C31.1719 11.5961 30.999 11.1788 30.6913 10.8711C30.3837 10.5634 29.9664 10.3906 29.5312 10.3906ZM19.9609 4.62924C20.1818 4.38246 20.4512 4.18392 20.7523 4.04607C21.0535 3.90821 21.3798 3.83399 21.7109 3.82807H21.7943C22.171 3.82847 22.5437 3.90433 22.8905 4.05119C23.2374 4.19804 23.5513 4.4129 23.8137 4.68308C24.0761 4.95326 24.2817 5.27329 24.4183 5.62426C24.555 5.97522 24.62 6.35002 24.6094 6.72651C24.6035 7.05764 24.5292 7.38398 24.3914 7.6851C24.2535 7.98622 24.055 8.25565 23.8082 8.47651C22.1553 9.9394 19.2869 10.2826 18.066 10.3619C18.1508 9.15053 18.4926 6.28901 19.9609 4.62924ZM10.3906 6.72651C10.38 6.35002 10.445 5.97522 10.5817 5.62426C10.7183 5.27329 10.9239 4.95326 11.1863 4.68308C11.4487 4.4129 11.7626 4.19804 12.1095 4.05119C12.4563 3.90433 12.829 3.82847 13.2057 3.82807H13.2891C13.6202 3.83399 13.9465 3.90821 14.2477 4.04607C14.5488 4.18392 14.8182 4.38246 15.0391 4.62924C16.5033 6.28217 16.8451 9.15053 16.9244 10.3714C15.709 10.2921 12.8406 9.94897 11.1822 8.48608C10.936 8.26328 10.7386 7.99193 10.6023 7.68911C10.4661 7.38629 10.394 7.05855 10.3906 6.72651ZM4.92188 16.4062V12.0312C4.92188 11.8862 4.97949 11.7471 5.08205 11.6445C5.18461 11.5419 5.32371 11.4843 5.46875 11.4843H16.9531V16.9531H5.46875C5.32371 16.9531 5.18461 16.8955 5.08205 16.7929C4.97949 16.6903 4.92188 16.5512 4.92188 16.4062ZM7.10938 27.3437V18.0468H16.9531V27.8906H7.65625C7.51121 27.8906 7.37211 27.833 7.26955 27.7304C7.16699 27.6278 7.10938 27.4887 7.10938 27.3437ZM27.8906 27.3437C27.8906 27.4887 27.833 27.6278 27.7304 27.7304C27.6279 27.833 27.4888 27.8906 27.3438 27.8906H18.0469V18.0468H27.8906V27.3437ZM30.0781 16.4062C30.0781 16.5512 30.0205 16.6903 29.9179 16.7929C29.8154 16.8955 29.6763 16.9531 29.5312 16.9531H18.0469V11.4843H29.5312C29.6763 11.4843 29.8154 11.5419 29.9179 11.6445C30.0205 11.7471 30.0781 11.8862 30.0781 12.0312V16.4062Z" fill="#414C53"/>
</svg>
