<svg width="25" height="25" viewBox="0 0 25 25" fill="none" xmlns="http://www.w3.org/2000/svg">
<path d="M22.2236 2.70509C22.1294 2.62371 22.0148 2.56961 21.8921 2.54861C21.7693 2.52761 21.6432 2.54053 21.5273 2.58595L1.73631 10.3311C1.49559 10.4253 1.29193 10.595 1.1559 10.8148C1.01988 11.0346 0.958844 11.2926 0.981959 11.5501C1.00507 11.8075 1.11109 12.0506 1.28409 12.2426C1.4571 12.4347 1.68774 12.5654 1.94139 12.6152L7.22655 13.6533V19.5313C7.22666 19.8038 7.30819 20.07 7.4607 20.2958C7.6132 20.5217 7.82971 20.6968 8.08243 20.7987C8.33516 20.9006 8.61258 20.9247 8.87908 20.8678C9.14558 20.8109 9.389 20.6757 9.57811 20.4795L12.1797 17.7813L16.2402 21.3408C16.4881 21.5602 16.8076 21.6814 17.1387 21.6817C17.2832 21.6813 17.4268 21.6586 17.5644 21.6143C17.79 21.5429 17.9929 21.4136 18.153 21.2394C18.313 21.0651 18.4246 20.8519 18.4765 20.6211L22.4433 3.37599C22.4712 3.25475 22.4655 3.12821 22.4268 3.00998C22.3881 2.89176 22.3178 2.78634 22.2236 2.70509ZM2.1533 11.4619C2.14956 11.4518 2.14956 11.4408 2.1533 11.4307C2.15771 11.4273 2.16267 11.4246 2.16795 11.4229L17.7646 5.3174L7.67674 12.544L2.16795 11.4658L2.1533 11.4619ZM8.73436 19.6651C8.70744 19.693 8.67282 19.7123 8.6349 19.7204C8.59699 19.7286 8.5575 19.7253 8.52146 19.711C8.48543 19.6966 8.45448 19.6719 8.43257 19.6399C8.41066 19.6079 8.39877 19.57 8.39842 19.5313V14.4639L11.2978 17.0029L8.73436 19.6651ZM17.3349 20.3565C17.3277 20.3895 17.3118 20.42 17.2888 20.4447C17.2658 20.4694 17.2365 20.4875 17.2041 20.4971C17.171 20.5087 17.1354 20.5112 17.1011 20.5043C17.0667 20.4974 17.0348 20.4815 17.0088 20.458L8.75389 13.2168L20.9961 4.44337L17.3349 20.3565Z" fill="#414C53"/>
</svg>
