<svg width="20" height="20" viewBox="0 0 20 20" fill="none" xmlns="http://www.w3.org/2000/svg">
<g clip-path="url(#clip0_8_11)">
<path d="M9.99302 10.573C10.584 10.573 11.1691 10.4566 11.7151 10.2305C12.2611 10.0043 12.7571 9.67284 13.175 9.25498C13.5929 8.83712 13.9243 8.34104 14.1505 7.79508C14.3766 7.24911 14.493 6.66395 14.493 6.073C14.493 5.48205 14.3766 4.89689 14.1505 4.35092C13.9243 3.80496 13.5929 3.30888 13.175 2.89102C12.7571 2.47316 12.2611 2.14169 11.7151 1.91554C11.1691 1.6894 10.584 1.573 9.99302 1.573C8.79955 1.573 7.65495 2.04711 6.81104 2.89102C5.96712 3.73493 5.49302 4.87953 5.49302 6.073C5.49302 7.26647 5.96712 8.41107 6.81104 9.25498C7.65495 10.0989 8.79955 10.573 9.99302 10.573ZM10 3.18547e-07C11.3172 -0.000428752 12.598 0.432609 13.6446 1.2323C14.6913 2.03199 15.4457 3.15388 15.7915 4.42489C16.1373 5.6959 16.0553 7.04537 15.558 8.26511C15.0607 9.48484 14.1759 10.507 13.04 11.174C16.728 12.284 19.498 15.392 19.995 19.252C20.042 19.619 19.769 19.952 19.385 19.997C19.002 20.042 18.652 19.782 18.605 19.415C18.065 15.225 14.436 12.07 10.035 12.07C5.61002 12.07 1.93402 15.231 1.39502 19.415C1.34802 19.782 0.998019 20.042 0.615019 19.997C0.231019 19.952 -0.0419809 19.619 0.00501911 19.252C0.501019 15.408 3.28602 12.304 6.98002 11.184C5.8407 10.5201 4.95184 9.4993 4.45086 8.27953C3.94987 7.05975 3.86468 5.70891 4.20844 4.43585C4.5522 3.1628 5.30577 2.03844 6.35264 1.23663C7.39951 0.434818 8.68137 0.000209262 10 3.18547e-07Z" fill="#414C53"/>
</g>
<defs>
<clipPath id="clip0_8_11">
<rect width="20" height="20" fill="white"/>
</clipPath>
</defs>
</svg>
