<svg width="25" height="25" viewBox="0 0 25 25" fill="none" xmlns="http://www.w3.org/2000/svg">
<path d="M6.35989 2.73682C5.40014 2.74056 4.48077 3.12347 3.80212 3.80212C3.12347 4.48077 2.74056 5.40014 2.73682 6.35989V18.6404C2.74056 19.6001 3.12347 20.5195 3.80212 21.1981C4.48077 21.8768 5.40014 22.2597 6.35989 22.2634H18.6404C19.6001 22.2597 20.5195 21.8768 21.1981 21.1981C21.8768 20.5195 22.2597 19.6001 22.2634 18.6404V6.35989C22.2597 5.40014 21.8768 4.48077 21.1981 3.80212C20.5195 3.12347 19.6001 2.74056 18.6404 2.73682H6.35989ZM6.35989 4.51196H18.6404C18.8834 4.51055 19.1244 4.55738 19.3492 4.64975C19.574 4.74212 19.7783 4.87818 19.9502 5.05006C20.1221 5.22194 20.2581 5.42621 20.3505 5.65105C20.4429 5.87589 20.4897 6.11682 20.4883 6.35989V18.6404C20.4897 18.8834 20.4429 19.1244 20.3505 19.3492C20.2581 19.574 20.1221 19.7783 19.9502 19.9502C19.7783 20.1221 19.574 20.2581 19.3492 20.3505C19.1244 20.4429 18.8834 20.4897 18.6404 20.4883H6.35989C6.11679 20.4898 5.87581 20.4431 5.65091 20.3508C5.42602 20.2584 5.2217 20.1224 5.04979 19.9505C4.87789 19.7786 4.74183 19.5742 4.64951 19.3493C4.55718 19.1245 4.51043 18.8835 4.51196 18.6404V6.35989C4.51055 6.11682 4.55738 5.87589 4.64975 5.65105C4.74212 5.42621 4.87818 5.22194 5.05006 5.05006C5.22194 4.87818 5.42621 4.74212 5.65105 4.64975C5.87589 4.55738 6.11682 4.51055 6.35989 4.51196ZM12.2507 9.15398C11.5984 9.14776 11.0436 9.15398 10.7321 9.30664C10.5235 9.40782 10.3646 9.63593 10.4614 9.64658C10.583 9.66433 10.8563 9.72291 11.0028 9.92084C11.1892 10.1738 11.183 10.7463 11.183 10.7463C11.183 10.7463 11.2868 12.32 10.9291 12.5179C10.6833 12.6528 10.3469 12.3785 9.61906 11.1271C9.24806 10.4827 8.96759 9.77173 8.96759 9.77173C8.96759 9.77173 8.91433 9.63948 8.81847 9.57025C8.70043 9.48415 8.53711 9.45575 8.53711 9.45575L6.80013 9.4664C6.80013 9.4664 6.54007 9.47705 6.44688 9.588C6.35989 9.69185 6.43977 9.89599 6.43977 9.89599C6.43977 9.89599 7.79865 13.0753 9.3377 14.6773C10.7489 16.1481 12.351 16.0504 12.351 16.0504H13.0788C13.0788 16.0504 13.2972 16.0265 13.4081 15.9084C13.5129 15.7975 13.5093 15.5889 13.5093 15.5889C13.5093 15.5889 13.4951 14.6152 13.946 14.4697C14.3933 14.3303 14.9614 15.4123 15.5685 15.8285C16.03 16.1436 16.3797 16.0744 16.3797 16.0744L18.0031 16.0504C18.0031 16.0504 18.8489 15.9981 18.4469 15.3288C18.4158 15.2773 18.2143 14.8371 17.2442 13.9353C16.2244 12.9927 16.3602 13.1454 17.5868 11.5123C18.3324 10.5173 18.6306 9.91019 18.5365 9.64658C18.4478 9.40072 17.8992 9.4664 17.8992 9.4664L16.0717 9.47705C16.0717 9.47705 15.9368 9.4593 15.8365 9.51877C15.7676 9.56998 15.7126 9.63775 15.6768 9.71581C15.6768 9.71581 15.3856 10.4853 15.0004 11.1413C14.1892 12.5205 13.8599 12.5969 13.7285 12.5108C13.4197 12.3093 13.496 11.7058 13.496 11.2797C13.496 9.9377 13.7001 9.38297 13.101 9.2383C12.9031 9.18948 12.7575 9.15841 12.2516 9.15398H12.2507Z" fill="#414C53"/>
</svg>
